<svg xmlns="http://www.w3.org/2000/svg" viewBox="0 0 583.83 107.09"><defs><style>.cls-1{fill:#fff;}</style></defs><g id="Lag_2" data-name="Lag 2"><g id="Lag_1-2" data-name="Lag 1"><path class="cls-1" d="M26.25,69.88a11.81,11.81,0,0,1-2.54,3.78,12.22,12.22,0,0,1-3.77,2.54,11.55,11.55,0,0,1-4.62.92H11.89a11.63,11.63,0,0,1-4.63-.92,12.07,12.07,0,0,1-3.79-2.54A11.81,11.81,0,0,1,.93,69.88,11.47,11.47,0,0,1,0,65.27V28.16H4.35V65.27a7.52,7.52,0,0,0,.6,3,7.77,7.77,0,0,0,1.67,2.46,7.88,7.88,0,0,0,2.46,1.67,7.53,7.53,0,0,0,3,.61h3a7.61,7.61,0,0,0,3-.61,7.79,7.79,0,0,0,2.44-1.67,8.05,8.05,0,0,0,1.65-2.46,7.52,7.52,0,0,0,.6-3V28.16h4.35V65.27A11.47,11.47,0,0,1,26.25,69.88Z"/><path class="cls-1" d="M84.5,50.65a11.85,11.85,0,0,1-11,7.24H62.59V76.45H58.24V28.16H73.53a11.6,11.6,0,0,1,4.63.92,11.81,11.81,0,0,1,7.26,11v6A11.64,11.64,0,0,1,84.5,50.65ZM81.08,40a7.4,7.4,0,0,0-.61-3,7.83,7.83,0,0,0-1.67-2.46,8,8,0,0,0-2.45-1.67,7.61,7.61,0,0,0-3-.6H62.59V53.75H73.33a7.44,7.44,0,0,0,3-.61,7.78,7.78,0,0,0,2.45-1.65,7.52,7.52,0,0,0,1.67-2.44,7.36,7.36,0,0,0,.61-3Z"/><path class="cls-1" d="M139.94,69.88a11.81,11.81,0,0,1-2.54,3.78,12.1,12.1,0,0,1-3.77,2.54,11.54,11.54,0,0,1-4.61.92h-3.44A11.63,11.63,0,0,1,121,76.2a11.8,11.8,0,0,1-6.33-6.32,11.47,11.47,0,0,1-.93-4.61V39.34a11.56,11.56,0,0,1,.93-4.62A12,12,0,0,1,117.16,31,11.91,11.91,0,0,1,121,28.41a11.64,11.64,0,0,1,4.63-.93H129a11.54,11.54,0,0,1,4.61.93,11.88,11.88,0,0,1,6.31,6.31,11.56,11.56,0,0,1,.93,4.62v1.95l-4.34.67V39.34a7.58,7.58,0,0,0-.61-3,7.73,7.73,0,0,0-1.65-2.44,7.9,7.9,0,0,0-2.44-1.65,7.57,7.57,0,0,0-3-.6h-3a7.56,7.56,0,0,0-3,.6,8.12,8.12,0,0,0-2.46,1.65,7.79,7.79,0,0,0-1.67,2.44,7.57,7.57,0,0,0-.6,3V65.27a7.52,7.52,0,0,0,.6,3,7.77,7.77,0,0,0,1.67,2.46,8,8,0,0,0,2.46,1.67,7.57,7.57,0,0,0,3,.61h3a7.58,7.58,0,0,0,3-.61,7.79,7.79,0,0,0,2.44-1.67,7.71,7.71,0,0,0,1.65-2.46,7.53,7.53,0,0,0,.61-3V62.64l4.34.71v1.92A11.47,11.47,0,0,1,139.94,69.88Z"/><path class="cls-1" d="M196.77,69.88a11.81,11.81,0,0,1-2.54,3.78,12.1,12.1,0,0,1-3.77,2.54,11.55,11.55,0,0,1-4.62.92h-3.43a11.63,11.63,0,0,1-4.63-.92A12.07,12.07,0,0,1,174,73.66a11.81,11.81,0,0,1-2.54-3.78,11.47,11.47,0,0,1-.93-4.61V39.34a11.56,11.56,0,0,1,.93-4.62,11.83,11.83,0,0,1,6.33-6.31,11.64,11.64,0,0,1,4.63-.93h3.43a11.56,11.56,0,0,1,4.62.93,11.88,11.88,0,0,1,6.31,6.31,11.56,11.56,0,0,1,.93,4.62V65.27A11.47,11.47,0,0,1,196.77,69.88Zm-3.41-30.54a7.58,7.58,0,0,0-.61-3,8.08,8.08,0,0,0-1.65-2.44,7.9,7.9,0,0,0-2.44-1.65,7.61,7.61,0,0,0-3-.6h-3a7.52,7.52,0,0,0-3,.6,8.12,8.12,0,0,0-2.46,1.65,7.79,7.79,0,0,0-1.67,2.44,7.57,7.57,0,0,0-.6,3V65.27a7.52,7.52,0,0,0,.6,3,7.77,7.77,0,0,0,1.67,2.46,8,8,0,0,0,2.46,1.67,7.53,7.53,0,0,0,3,.61h3a7.61,7.61,0,0,0,3-.61,7.79,7.79,0,0,0,2.44-1.67,8.05,8.05,0,0,0,1.65-2.46,7.53,7.53,0,0,0,.61-3Z"/><path class="cls-1" d="M258.5,76.45V43.34l-.3,2.06L247,76.45h-2.29L233.38,45.4l-.27-2.06V76.45h-4.35V28.16H231l14.65,39.6.14,1.79.13-1.79,14.62-39.6h2.29V76.45Z"/><path class="cls-1" d="M294.55,76.45V28.16h4.35V76.45Z"/><path class="cls-1" d="M355.52,76.45,335.38,41.29,335,39.2V76.45h-4.35V28.16h2.26L353,63.35l.44,2.05V28.16h4.34V76.45Z"/><path class="cls-1" d="M416,76.45h-1.38l-2.52-3.87a11.93,11.93,0,0,1-3.84,3.31,10.34,10.34,0,0,1-5,1.23h-2.53a11.63,11.63,0,0,1-4.63-.92,11.8,11.8,0,0,1-6.33-6.32,11.47,11.47,0,0,1-.93-4.61V39.34a11.56,11.56,0,0,1,.93-4.62A12.22,12.22,0,0,1,392.31,31a11.91,11.91,0,0,1,3.79-2.54,11.64,11.64,0,0,1,4.63-.93h3.44a11.51,11.51,0,0,1,4.61.93A11.82,11.82,0,0,1,412.55,31a12.07,12.07,0,0,1,2.55,3.77,11.72,11.72,0,0,1,.92,4.62v1.95l-4.34.67V39.34a7.41,7.41,0,0,0-.61-3A7.77,7.77,0,0,0,407,32.23a7.56,7.56,0,0,0-3-.6h-3a7.56,7.56,0,0,0-3,.6,8.12,8.12,0,0,0-2.46,1.65,7.79,7.79,0,0,0-1.67,2.44,7.57,7.57,0,0,0-.6,3V65.27a7.52,7.52,0,0,0,.6,3,7.77,7.77,0,0,0,1.67,2.46,8,8,0,0,0,2.46,1.67,7.57,7.57,0,0,0,3,.61h3a7.57,7.57,0,0,0,3-.61,7.84,7.84,0,0,0,4.09-4.13,7.36,7.36,0,0,0,.61-3V55.2H404V51.06h12Z"/><path class="cls-1" d="M581.58,69.79a2.25,2.25,0,0,1-2.25-2.25v-28a2.25,2.25,0,0,1,4.5,0v28A2.25,2.25,0,0,1,581.58,69.79Z"/><path class="cls-1" d="M567.59,83.78a2.25,2.25,0,0,1-2.25-2.25v-56a2.25,2.25,0,0,1,4.5,0v56A2.25,2.25,0,0,1,567.59,83.78Z"/><path class="cls-1" d="M553.6,102.43a2.25,2.25,0,0,1-2.25-2.25V6.91a2.25,2.25,0,1,1,4.5,0v93.27A2.25,2.25,0,0,1,553.6,102.43Z"/><path class="cls-1" d="M525.62,102.43a2.25,2.25,0,0,1-2.25-2.25V6.91a2.25,2.25,0,1,1,4.5,0v93.27A2.25,2.25,0,0,1,525.62,102.43Z"/><path class="cls-1" d="M539.61,83.78a2.25,2.25,0,0,1-2.25-2.25v-56a2.25,2.25,0,0,1,4.5,0v56A2.25,2.25,0,0,1,539.61,83.78Z"/><path class="cls-1" d="M511.63,107.09a2.25,2.25,0,0,1-2.25-2.25V2.25a2.25,2.25,0,0,1,4.5,0V104.84A2.25,2.25,0,0,1,511.63,107.09Z"/><path class="cls-1" d="M497.64,88.44a2.25,2.25,0,0,1-2.25-2.25V20.9a2.25,2.25,0,1,1,4.5,0V86.19A2.25,2.25,0,0,1,497.64,88.44Z"/><path class="cls-1" d="M483.65,69.79a2.25,2.25,0,0,1-2.25-2.25v-28a2.25,2.25,0,0,1,4.5,0v28A2.25,2.25,0,0,1,483.65,69.79Z"/></g></g></svg>
